<?xml version="1.0" encoding="UTF-8" standalone="no"?>
<svg
   width="2949"
   height="1849"
   overflow="hidden"
   version="1.1"
   id="svg66"
   sodipodi:docname="Fig2_workflow.svg"
   inkscape:version="1.4 (86a8ad7, 2024-10-11)"
   xmlns:inkscape="http://www.inkscape.org/namespaces/inkscape"
   xmlns:sodipodi="http://sodipodi.sourceforge.net/DTD/sodipodi-0.dtd"
   xmlns="http://www.w3.org/2000/svg"
   xmlns:svg="http://www.w3.org/2000/svg">
  <sodipodi:namedview
     id="namedview66"
     pagecolor="#ffffff"
     bordercolor="#999999"
     borderopacity="1"
     inkscape:showpageshadow="2"
     inkscape:pageopacity="0"
     inkscape:pagecheckerboard="0"
     inkscape:deskcolor="#d1d1d1"
     showgrid="false"
     inkscape:zoom="0.38792811"
     inkscape:cx="1474.5"
     inkscape:cy="924.1403"
     inkscape:window-width="1920"
     inkscape:window-height="991"
     inkscape:window-x="-9"
     inkscape:window-y="-9"
     inkscape:window-maximized="1"
     inkscape:current-layer="svg66" />
  <defs
     id="defs1">
    <clipPath
       id="clip0">
      <rect
         x="188"
         y="63"
         width="2949"
         height="1849"
         id="rect1" />
    </clipPath>
  </defs>
  <g
     clip-path="url(#clip0)"
     transform="translate(-188 -63)"
     id="g66">
    <rect
       x="1236.5"
       y="1160.5"
       width="1026"
       height="726"
       stroke="#000000"
       stroke-width="4.58333"
       stroke-miterlimit="8"
       fill="#F2F2F2"
       id="rect2" />
    <path
       d="M0.00191108-1.14583 1294.63 1.01341 1294.62 3.30508-0.00191108 1.14583ZM1290.07-11.5984 1317.55 2.19747 1290.02 15.9016Z"
       transform="matrix(1 0 0 -1 1214 1626.2)"
       id="path2" />
    <path
       d="M378.5 412.5C378.5 359.481 493.563 316.5 635.5 316.5 777.437 316.5 892.5 359.481 892.5 412.5 892.5 465.519 777.437 508.5 635.5 508.5 493.563 508.5 378.5 465.519 378.5 412.5Z"
       stroke="#000000"
       stroke-width="4.58333"
       stroke-miterlimit="8"
       fill="#FFFFFF"
       fill-rule="evenodd"
       id="path3" />
    <text
       font-family="Arial,Arial_MSFontService,sans-serif"
       font-weight="400"
       font-size="55"
       transform="matrix(1 0 0 1 580.099 385)"
       id="text3">UAV<tspan
   font-size="55"
   x="-148.431"
   y="66"
   id="tspan3">Photogrammetry</tspan></text>
    <rect
       x="368.5"
       y="604.5"
       width="210"
       height="99.9997"
       stroke="#000000"
       stroke-width="4.58333"
       stroke-miterlimit="8"
       fill="#FFFFFF"
       id="rect3" />
    <text
       font-family="Arial,Arial_MSFontService,sans-serif"
       font-weight="400"
       font-size="55"
       transform="matrix(1 0 0 1 401.598 673)"
       id="text4">DSM<tspan
   font-size="37"
   x="122.031"
   y="-17"
   id="tspan4">1</tspan></text>
    <rect
       x="688.5"
       y="608.5"
       width="207"
       height="100"
       stroke="#000000"
       stroke-width="4.58333"
       stroke-miterlimit="8"
       fill="#FFFFFF"
       id="rect4" />
    <text
       font-family="Arial,Arial_MSFontService,sans-serif"
       font-weight="400"
       font-size="55"
       transform="matrix(1 0 0 1 721.602 678)"
       id="text5">DTM<tspan
   font-size="37"
   x="119.167"
   y="-17"
   id="tspan5">2</tspan></text>
    <path
       d="M0 0 162.08 96.1475"
       stroke="#000000"
       stroke-width="2.29167"
       stroke-miterlimit="8"
       fill="none"
       fill-rule="evenodd"
       transform="matrix(-1 0 0 1 635.08 508)"
       id="path5" />
    <path
       d="M0 0 254.734 79.3353"
       stroke="#000000"
       stroke-width="2.29167"
       stroke-miterlimit="8"
       fill="none"
       fill-rule="evenodd"
       transform="matrix(-1 0 0 1 636.734 977)"
       id="path6" />
    <path
       d="M0 0 53.475 0 53.475 164.229 106.95 164.229"
       stroke="#000000"
       stroke-width="2.29167"
       stroke-miterlimit="8"
       fill="none"
       fill-rule="evenodd"
       transform="matrix(1.83697e-16 1 1 -1.83697e-16 473 704)"
       id="path7" />
    <path
       d="M791.343 708 791.343 757.966 637 757.966 637 810.224"
       stroke="#000000"
       stroke-width="2.29167"
       stroke-miterlimit="8"
       fill="none"
       fill-rule="evenodd"
       id="path8" />
    <rect
       x="421.5"
       y="811.5"
       width="432"
       height="166"
       stroke="#000000"
       stroke-width="4.58333"
       stroke-miterlimit="8"
       fill="#FFFFFF"
       id="rect8" />
    <text
       font-family="Arial,Arial_MSFontService,sans-serif"
       font-weight="400"
       font-size="55"
       transform="matrix(1 0 0 1 456.114 880)"
       id="text9">Canopy<tspan
   font-size="55"
   x="203.958"
   y="0"
   id="tspan8">Height</tspan><tspan
   font-size="55"
   x="114.308"
   y="66"
   id="tspan9">Model</tspan></text>
    <rect
       x="209"
       y="1057"
       width="347"
       height="166"
       stroke="#000000"
       stroke-width="2.29167"
       stroke-miterlimit="8"
       fill="#FFFFFF"
       id="rect9" />
    <text
       font-family="Arial,Arial_MSFontService,sans-serif"
       font-weight="400"
       font-size="55"
       transform="matrix(1 0 0 1 246.228 1126)"
       id="text11">Tree<tspan
   font-size="55"
   x="126.294"
   y="0"
   id="tspan10">crown </tspan><tspan
   font-size="55"
   x="26.7667"
   y="66"
   id="tspan11">polygons</tspan></text>
    <rect
       x="368"
       y="1307"
       width="432"
       height="100"
       stroke="#000000"
       stroke-width="2.29167"
       stroke-miterlimit="8"
       fill="#FFFFFF"
       id="rect11" />
    <text
       font-family="Arial,Arial_MSFontService,sans-serif"
       font-weight="400"
       font-size="55"
       transform="matrix(1 0 0 1 412.745 1377)"
       id="text12">UAV variables</text>
    <path
       d="M850.5 1627 884.57 1562.5 1180.43 1562.5 1214.5 1627 1180.43 1691.5 884.57 1691.5Z"
       stroke="#000000"
       stroke-width="4.58333"
       stroke-miterlimit="8"
       fill="#FFFFFF"
       fill-rule="evenodd"
       id="path12" />
    <text
       font-family="Arial,Arial_MSFontService,sans-serif"
       font-weight="400"
       font-size="46"
       transform="matrix(1 0 0 1 964.755 1615)"
       id="text14">6 plots<tspan
   font-size="46"
   x="-22.0458"
   y="50"
   id="tspan12">(all </tspan><tspan
   font-size="46"
   x="51.8604"
   y="50"
   id="tspan13">trees</tspan><tspan
   font-size="46"
   x="153.267"
   y="50"
   id="tspan14">)</tspan></text>
    <rect
       x="520.5"
       y="179.5"
       width="230"
       height="100"
       stroke="#000000"
       stroke-width="4.58333"
       stroke-miterlimit="8"
       fill="#FFFFFF"
       id="rect14" />
    <text
       font-family="Arial,Arial_MSFontService,sans-serif"
       font-weight="400"
       font-size="55"
       transform="matrix(1 0 0 1 554.225 248)"
       id="text15">6 plots</text>
    <rect
       x="1265"
       y="1543"
       width="454"
       height="167"
       stroke="#000000"
       stroke-width="10.3125"
       stroke-miterlimit="8"
       fill="#FFFFFF"
       id="rect15" />
    <text
       font-family="Arial,Arial_MSFontService,sans-serif"
       font-weight="400"
       font-size="55"
       transform="matrix(1 0 0 1 1312.18 1613)"
       id="text16">Plot estimation <tspan
   font-weight="700"
   font-size="55"
   x="59.0105"
   y="66"
   id="tspan15">Method 1</tspan></text>
    <rect
       x="1782"
       y="1541"
       width="455"
       height="167"
       stroke="#000000"
       stroke-width="10.3125"
       stroke-miterlimit="8"
       fill="#FFFFFF"
       id="rect16" />
    <text
       font-family="Arial,Arial_MSFontService,sans-serif"
       font-weight="400"
       font-size="55"
       transform="matrix(1 0 0 1 1829.7 1611)"
       id="text17">Plot estimation <tspan
   font-weight="700"
   font-size="55"
   x="59.0105"
   y="66"
   id="tspan16">Method 2</tspan></text>
    <path
       d="M635 508 791.493 608.874"
       stroke="#000000"
       stroke-width="2.29167"
       stroke-miterlimit="8"
       fill="none"
       fill-rule="evenodd"
       id="path17" />
    <rect
       x="190.5"
       y="65.5002"
       width="883"
       height="99.9997"
       stroke="#000000"
       stroke-width="4.58333"
       stroke-miterlimit="8"
       fill="#D0CECE"
       id="rect17" />
    <text
       font-family="Arial,Arial_MSFontService,sans-serif"
       font-weight="700"
       font-size="55"
       transform="matrix(1 0 0 1 508.874 135)"
       id="text18">UAV Data</text>
    <rect
       x="190.5"
       y="65.5002"
       width="883"
       height="1448"
       stroke="#000000"
       stroke-width="4.58333"
       stroke-miterlimit="8"
       fill="none"
       id="rect18" />
    <rect
       x="1220.5"
       y="65.5002"
       width="884"
       height="99.9997"
       stroke="#000000"
       stroke-width="4.58333"
       stroke-miterlimit="8"
       fill="#D0CECE"
       id="rect19" />
    <text
       font-family="Arial,Arial_MSFontService,sans-serif"
       font-weight="700"
       font-size="55"
       transform="matrix(1 0 0 1 1424.9 135)"
       id="text19">Allometric<tspan
   font-size="55"
   x="284.167"
   y="0"
   id="tspan19">Models</tspan></text>
    <rect
       x="1368.5"
       y="181.5"
       width="592"
       height="100"
       stroke="#000000"
       stroke-width="4.58333"
       stroke-miterlimit="8"
       fill="#FFFFFF"
       id="rect20" />
    <text
       font-family="Arial,Arial_MSFontService,sans-serif"
       font-weight="400"
       font-size="55"
       transform="matrix(1 0 0 1 1432.54 250)"
       id="text20">40 calibration trees</text>
    <rect
       x="1220.5"
       y="65.5002"
       width="884"
       height="1001"
       stroke="#000000"
       stroke-width="4.58333"
       stroke-miterlimit="8"
       fill="none"
       id="rect21" />
    <path
       d="M0 0 224.049 28.338"
       stroke="#000000"
       stroke-width="2.29167"
       stroke-miterlimit="8"
       fill="none"
       fill-rule="evenodd"
       transform="matrix(-1 0 0 1 1664.05 281)"
       id="path21" />
    <path
       d="M1664 281 1885.22 310.123"
       stroke="#000000"
       stroke-width="2.29167"
       stroke-miterlimit="8"
       fill="none"
       fill-rule="evenodd"
       id="path22" />
    <path
       d="M1885 551 1885 608.375"
       stroke="#000000"
       stroke-width="2.29167"
       stroke-miterlimit="8"
       fill="none"
       fill-rule="evenodd"
       id="path23" />
    <rect
       x="1245.5"
       y="605.5"
       width="390"
       height="100"
       stroke="#000000"
       stroke-width="4.58333"
       stroke-linejoin="round"
       stroke-miterlimit="10"
       fill="none"
       id="rect23" />
    <text
       font-family="Arial,Arial_MSFontService,sans-serif"
       font-weight="400"
       font-size="55"
       transform="matrix(1 0 0 1 1279.53 675)"
       id="text23">volume, AGB</text>
    <path
       d="M0 0 0.0790354 54.4406"
       stroke="#000000"
       stroke-width="2.29167"
       stroke-miterlimit="8"
       fill="none"
       fill-rule="evenodd"
       transform="matrix(1 0 0 -1 1440 605.441)"
       id="path24" />
    <rect
       x="1729.5"
       y="609.5"
       width="312"
       height="100"
       stroke="#000000"
       stroke-width="4.58333"
       stroke-linejoin="round"
       stroke-miterlimit="10"
       fill="none"
       id="rect24" />
    <text
       font-family="Arial,Arial_MSFontService,sans-serif"
       font-weight="400"
       font-size="55"
       transform="matrix(1 0 0 1 1792.12 678)"
       id="text24">H, CBH</text>
    <path
       d="M1245.5 430.5C1245.5 363.673 1332.8 309.5 1440.5 309.5 1548.2 309.5 1635.5 363.673 1635.5 430.5 1635.5 497.326 1548.2 551.5 1440.5 551.5 1332.8 551.5 1245.5 497.326 1245.5 430.5Z"
       stroke="#000000"
       stroke-width="4.58333"
       stroke-miterlimit="8"
       fill="#FFFFFF"
       fill-rule="evenodd"
       id="path25" />
    <text
       font-family="Arial,Arial_MSFontService,sans-serif"
       font-weight="400"
       font-size="55"
       transform="matrix(1 0 0 1 1302.74 414)"
       id="text25">Destructive <tspan
   font-size="55"
   x="35.2457"
   y="66"
   id="tspan25">biomass</tspan></text>
    <path
       d="M1690.5 431C1690.5 364.45 1777.8 310.5 1885.5 310.5 1993.2 310.5 2080.5 364.45 2080.5 431 2080.5 497.55 1993.2 551.5 1885.5 551.5 1777.8 551.5 1690.5 497.55 1690.5 431Z"
       stroke="#000000"
       stroke-width="4.58333"
       stroke-miterlimit="8"
       fill="#FFFFFF"
       fill-rule="evenodd"
       id="path26" />
    <text
       font-family="Arial,Arial_MSFontService,sans-serif"
       font-weight="400"
       font-size="55"
       transform="matrix(1 0 0 1 1730.11 443)"
       id="text26">Dendrometry</text>
    <path
       d="M0 0 0.00144357 36.9778"
       stroke="#000000"
       stroke-width="2.29167"
       stroke-miterlimit="8"
       fill="none"
       fill-rule="evenodd"
       transform="matrix(-1 0 0 1 635.001 279)"
       id="path27" />
    <path
       d="M849.609 1626.51 584 1626.51 584 1407"
       stroke="#000000"
       stroke-width="2.29167"
       stroke-miterlimit="8"
       fill="none"
       fill-rule="evenodd"
       id="path28" />
    <path
       d="M803 1375 1775 1375 1775 1367 1791 1383 1775 1399 1775 1391 803 1391Z"
       fill="#8FAADC"
       fill-rule="evenodd"
       id="path29" />
    <path
       d="M805 1323 1244 1323 1244 1315 1260 1331 1244 1347 1244 1339 805 1339Z"
       fill="#ED7D31"
       fill-rule="evenodd"
       id="path30" />
    <path
       d="M854.5 1357.5 888.834 1292.5 1184.17 1292.5 1218.5 1357.5 1184.17 1422.5 888.834 1422.5Z"
       stroke="#000000"
       stroke-width="4.58333"
       stroke-miterlimit="8"
       fill="#FFFFFF"
       fill-rule="evenodd"
       id="path31" />
    <text
       font-family="Arial,Arial_MSFontService,sans-serif"
       font-weight="400"
       font-size="46"
       transform="matrix(1 0 0 1 900.463 1352)"
       id="text31">40 calibration <tspan
   font-size="46"
   x="84.7917"
   y="55"
   id="tspan31">trees</tspan></text>
    <path
       d="M1997 715 1997 1218 2005 1218 1989 1234 1973 1218 1981 1218 1981 715Z"
       fill="#8FAADC"
       fill-rule="evenodd"
       id="path32" />
    <path
       d="M1346 712 1346 1216 1354 1216 1338 1232 1322 1216 1330 1216 1330 712Z"
       fill="#ED7D31"
       fill-rule="evenodd"
       id="path33" />
    <path
       d="M5.30346e-07-1.14583 756.805-1.14548 756.805 1.14618-5.30346e-07 1.14583ZM752.222-13.7497 779.722 0.000360892 752.222 13.7503Z"
       transform="matrix(1 0 0 -1 1916 836)"
       id="path34" />
    <path
       d="M638.146 977 638.146 1278.89 635.854 1278.89 635.854 977ZM650.75 1274.3 637 1301.8 623.25 1274.3Z"
       id="path35" />
    <path
       d="M1545.15 895 1545.15 1520.49 1542.85 1520.49 1542.85 895ZM1557.75 1515.91 1544 1543.41 1530.25 1515.91Z"
       id="path36" />
    <path
       d="M382.44 1221.94 563.156 1297.06 562.276 1299.17 381.56 1224.06ZM563.761 1283.66 583.877 1306.91 553.206 1309.05Z"
       id="path37" />
    <path
       d="M0.416016-1.06764 200.071 76.7293 199.239 78.8646-0.416016 1.06764ZM200.376 63.3211 221.007 86.1172 190.392 88.9446Z"
       transform="matrix(-1 0 0 1 1885.01 709)"
       id="path38" />
    <path
       d="M1440.43 703.936 1643.49 785.254 1642.64 787.381 1439.57 706.064ZM1643.92 771.849 1664.34 794.837 1633.7 797.378Z"
       id="path39" />
    <rect
       x="2250.5"
       y="65.5002"
       width="884"
       height="99.9997"
       stroke="#000000"
       stroke-width="4.58333"
       stroke-miterlimit="8"
       fill="#D0CECE"
       id="rect39" />
    <text
       font-family="Arial,Arial_MSFontService,sans-serif"
       font-weight="700"
       font-size="55"
       transform="matrix(1 0 0 1 2572.7 135)"
       id="text39">Plot Data</text>
    <rect
       x="2250.5"
       y="65.5002"
       width="884"
       height="1001"
       stroke="#000000"
       stroke-width="4.58333"
       stroke-miterlimit="8"
       fill="none"
       id="rect40" />
    <rect
       x="2581.5"
       y="182.5"
       width="230"
       height="100"
       stroke="#000000"
       stroke-width="4.58333"
       stroke-miterlimit="8"
       fill="#FFFFFF"
       id="rect41" />
    <text
       font-family="Arial,Arial_MSFontService,sans-serif"
       font-weight="400"
       font-size="55"
       transform="matrix(1 0 0 1 2614.98 251)"
       id="text41">6 plots</text>
    <rect
       x="2540.5"
       y="614.5"
       width="311"
       height="100"
       stroke="#000000"
       stroke-width="4.58333"
       stroke-linejoin="round"
       stroke-miterlimit="10"
       fill="none"
       id="rect42" />
    <text
       font-family="Arial,Arial_MSFontService,sans-serif"
       font-weight="400"
       font-size="55"
       transform="matrix(1 0 0 1 2602.54 683)"
       id="text42">H, CBH</text>
    <path
       d="M2501.5 435.5C2501.5 368.674 2588.8 314.5 2696.5 314.5 2804.2 314.5 2891.5 368.674 2891.5 435.5 2891.5 502.326 2804.2 556.5 2696.5 556.5 2588.8 556.5 2501.5 502.326 2501.5 435.5Z"
       stroke="#000000"
       stroke-width="4.58333"
       stroke-miterlimit="8"
       fill="#FFFFFF"
       fill-rule="evenodd"
       id="path42" />
    <text
       font-family="Arial,Arial_MSFontService,sans-serif"
       font-weight="400"
       font-size="55"
       transform="matrix(1 0 0 1 2582.04 452)"
       id="text43">Inventory</text>
    <path
       d="M2531.5 1625 2699 1525.5 2866.5 1625 2699 1724.5Z"
       stroke="#000000"
       stroke-width="4.58333"
       stroke-miterlimit="8"
       fill="#FFFFFF"
       fill-rule="evenodd"
       id="path43" />
    <text
       font-family="Arial,Arial_MSFontService,sans-serif"
       font-weight="400"
       font-size="55"
       transform="matrix(1 0 0 1 2580.99 1648)"
       id="text44">Validation</text>
    <path
       d="M2696 282 2696.34 314.295"
       stroke="#000000"
       stroke-width="2.29167"
       stroke-miterlimit="8"
       fill="none"
       fill-rule="evenodd"
       id="path44" />
    <path
       d="M0 0 0.461581 58.0596"
       stroke="#000000"
       stroke-width="2.29167"
       stroke-miterlimit="8"
       fill="none"
       fill-rule="evenodd"
       transform="matrix(-1 0 0 1 2696.46 556)"
       id="path45" />
    <path
       d="M2697.15 714 2697.15 907.057 2694.85 907.057 2694.85 714ZM2709.75 902.473 2696 929.973 2682.25 902.474Z"
       id="path46" />
    <path
       d="M1.14583-8.34635e-07 1.14618 472.537-1.14549 472.537-1.14583 8.34635e-07ZM13.7503 467.953 0.000360892 495.453-13.7497 467.953Z"
       transform="matrix(-1 0 0 1 2699 1030)"
       id="path47" />
    <rect
       x="2405"
       y="930"
       width="582"
       height="100"
       stroke="#548235"
       stroke-width="10.3125"
       stroke-miterlimit="8"
       fill="#FFFFFF"
       id="rect47" />
    <text
       font-family="Arial,Arial_MSFontService,sans-serif"
       font-weight="400"
       font-size="55"
       transform="matrix(1 0 0 1 2438.98 999)"
       id="text47">Plots volume &amp; AGB </text>
    <path
       d="M1493.15 1475 1493.31 1519.87 1491.02 1519.88 1490.85 1475ZM1505.9 1515.24 1492.25 1542.79 1478.4 1515.34Z"
       id="path48" />
    <path
       d="M2011.15 1476 2011.15 1518.07 2008.85 1518.07 2008.85 1476ZM2023.75 1513.49 2010 1540.99 1996.25 1513.49Z"
       id="path49" />
    <rect
       x="1236.5"
       y="1785.5"
       width="1026"
       height="100"
       stroke="#000000"
       stroke-width="4.58333"
       stroke-miterlimit="8"
       fill="#D0CECE"
       id="rect49" />
    <text
       font-family="Arial,Arial_MSFontService,sans-serif"
       font-weight="700"
       font-size="55"
       transform="matrix(1 0 0 1 1590.83 1855)"
       id="text49">UAV <tspan
   font-size="55"
   x="127.119"
   y="0"
   id="tspan49">Models</tspan></text>
    <rect
       x="1265"
       y="1242"
       width="454"
       height="234"
       stroke="#ED7D31"
       stroke-width="10.3125"
       stroke-miterlimit="8"
       fill="#FFFFFF"
       id="rect50" />
    <text
       font-family="Arial,Arial_MSFontService,sans-serif"
       font-weight="400"
       font-size="55"
       transform="matrix(1 0 0 1 1301.91 1312)"
       id="text55">UAV <tspan
   font-size="55"
   x="124.254"
   y="0"
   id="tspan50">models</tspan><tspan
   font-size="55"
   x="316.181"
   y="0"
   id="tspan51">for </tspan><tspan
   font-size="55"
   x="29.8375"
   y="66"
   id="tspan52">volume, AGB</tspan><tspan
   font-size="55"
   x="50.9667"
   y="132"
   id="tspan53">(</tspan><tspan
   font-weight="700"
   font-size="55"
   x="69.2999"
   y="132"
   id="tspan54">Method 1</tspan><tspan
   font-size="55"
   x="311.071"
   y="132"
   id="tspan55">)</tspan></text>
    <rect
       x="1795"
       y="1241"
       width="455"
       height="233"
       stroke="#8FAADC"
       stroke-width="10.3125"
       stroke-miterlimit="8"
       fill="#FFFFFF"
       id="rect55" />
    <text
       font-family="Arial,Arial_MSFontService,sans-serif"
       font-weight="400"
       font-size="55"
       transform="matrix(1 0 0 1 1832.6 1310)"
       id="text61">UAV <tspan
   font-size="55"
   x="124.254"
   y="0"
   id="tspan56">models</tspan><tspan
   font-size="55"
   x="316.181"
   y="0"
   id="tspan57">for </tspan><tspan
   font-size="55"
   x="51.5396"
   y="66"
   id="tspan58">H and CBH</tspan><tspan
   font-size="55"
   x="50.9667"
   y="132"
   id="tspan59">(</tspan><tspan
   font-weight="700"
   font-size="55"
   x="69.3001"
   y="132"
   id="tspan60">Method 2</tspan><tspan
   font-size="55"
   x="311.071"
   y="132"
   id="tspan61">)</tspan></text>
    <rect
       x="1413"
       y="795"
       width="503"
       height="100"
       stroke="#548235"
       stroke-width="10.3125"
       stroke-miterlimit="8"
       fill="#FFFFFF"
       id="rect61" />
    <text
       font-family="Arial,Arial_MSFontService,sans-serif"
       font-weight="400"
       font-size="55"
       transform="matrix(1 0 0 1 1447.94 864)"
       id="text66">Allometric<tspan
   font-size="55"
   x="256.094"
   y="0"
   id="tspan62">models</tspan><tspan
   font-size="32"
   x="-1136.89"
   y="935"
   id="tspan63">1</tspan><tspan
   font-size="48"
   x="-1119.13"
   y="949"
   id="tspan64">Digital Surface Model</tspan><tspan
   font-size="32"
   x="-1125.7"
   y="993"
   id="tspan65">2</tspan><tspan
   font-size="48"
   x="-1107.94"
   y="1007"
   id="tspan66">Digital Terrain Model</tspan></text>
  </g>
</svg>
